<?xml version="1.0" encoding="iso-8859-1"?>
<!-- Generator: Adobe Illustrator 18.0.0, SVG Export Plug-In . SVG Version: 6.00 Build 0)  -->
<!DOCTYPE svg PUBLIC "-//W3C//DTD SVG 1.1//EN" "http://www.w3.org/Graphics/SVG/1.1/DTD/svg11.dtd">
<svg version="1.1" id="Capa_1" xmlns="http://www.w3.org/2000/svg" xmlns:xlink="http://www.w3.org/1999/xlink" x="0px" y="0px"
	 viewBox="0 0 426.336 426.336" style="enable-background:new 0 0 426.336 426.336;" xml:space="preserve">
<g>
	<path style="fill:#FCE7A7;" d="M248.733,363.247v27.516c0,0.638-0.012,1.276-0.059,1.914c-0.272,5.305-1.701,10.302-4.076,14.733
		c-5.955,11.247-17.793,18.927-31.427,18.927c-13.646,0-25.484-7.679-31.438-18.927c-2.375-4.43-3.804-9.428-4.076-14.733
		c-0.047-0.638-0.059-1.276-0.059-1.914v-27.516H248.733z"/>
	<g>
		<path style="fill:#E5CF98;" d="M127.935,234.168c0,27.194-22.067,49.261-49.261,49.261c-8.725,0-16.913-2.282-24-6.255
			c-15.06-8.403-25.261-24.537-25.261-43.006c0-16.107,7.731-30.416,19.731-39.409c8.215-6.175,18.443-9.853,29.53-9.853
			C105.868,184.907,127.935,206.974,127.935,234.168z"/>
		<path style="fill:#E5CF98;" d="M396.923,234.168c0,27.194-22.067,49.261-49.261,49.261c-2.013,0-4-0.134-5.96-0.376
			c-24.375-2.926-43.301-23.704-43.301-48.885c0-27.194,22.067-49.261,49.261-49.261c0.456,0,0.886,0,1.316,0.027
			C375.582,185.632,396.923,207.43,396.923,234.168z"/>
	</g>
	<path style="fill:#E5CF98;" d="M248.733,363.247v27.516c0,0.638-0.012,1.276-0.059,1.914c-11.377,2.776-23.275,4.241-35.503,4.241
		c-12.24,0-24.137-1.465-35.514-4.241c-0.047-0.638-0.059-1.276-0.059-1.914v-27.516H248.733z"/>
	<path style="fill:#FCE7A7;" d="M363.101,188.566v50.74c0,25.31-6.28,49.18-17.37,70.1c-25.17,47.48-75.08,79.83-132.56,79.83
		s-107.4-32.35-132.57-79.83c-11.08-20.92-17.37-44.79-17.37-70.1v-50.74c0-4.19,0.18-8.34,0.51-12.44
		c6.18-75.24,67.92-134.75,144.11-137.4c1.36-0.05,2.7-0.07,4.05-0.08c0.42-0.01,0.85-0.01,1.27-0.01s0.83,0,1.25,0.01
		c1.35,0.01,2.71,0.03,4.07,0.08c39.28,1.37,74.72,17.86,100.69,43.82c24.39,24.39,40.42,57.15,43.41,93.58
		C362.921,180.227,363.101,184.376,363.101,188.566z"/>
	<g>
		<path style="fill:#91643A;" d="M260.082,178.713c-2.175,0-4.351-0.83-6.01-2.49c-22.556-22.554-59.256-22.555-81.812,0
			c-3.32,3.319-8.702,3.319-12.021,0c-3.32-3.319-3.319-8.701,0-12.021c29.184-29.185,76.669-29.184,105.853,0
			c3.32,3.319,3.32,8.701,0,12.021C264.432,177.883,262.257,178.713,260.082,178.713z"/>
		<path style="fill:#FFFFFF;" d="M256.151,217.126c0,10.01-3.44,19.24-9.21,26.56c-4.14-3.11-8.73-5.66-13.65-7.54
			c-6.25-2.4-13.04-3.71-20.13-3.71c-7.09,0-13.88,1.31-20.13,3.71c-4.92,1.88-9.5,4.43-13.64,7.54
			c-5.77-7.32-9.21-16.55-9.21-26.56c0-23.7,19.28-42.98,42.98-42.98C236.871,174.146,256.151,193.426,256.151,217.126z"/>
		<path style="fill:#4D4D4D;" d="M240.871,217.126c0,7.37-2.87,14.06-7.58,19.02c-6.25-2.4-13.04-3.71-20.13-3.71
			c-7.09,0-13.88,1.31-20.13,3.71c-4.7-4.96-7.57-11.65-7.57-19.02c0-15.3,12.4-27.7,27.7-27.7c2.24,0,4.4,0.29,6.49,0.79
			c-3.91,2.65-6.49,7.12-6.49,12.2c0,8.13,6.59,14.71,14.72,14.71c5.07,0,9.55-2.57,12.19-6.48
			C240.571,212.727,240.871,214.896,240.871,217.126z"/>
	</g>
	<path style="fill:#EA535E;" d="M213.166,318.694c-28.959,0-54.351-18.533-63.185-46.118c-0.674-2.104,0.486-4.355,2.589-5.029
		c2.105-0.673,4.356,0.486,5.03,2.589c7.769,24.259,30.099,40.558,55.566,40.558s47.797-16.299,55.565-40.558
		c0.673-2.104,2.926-3.265,5.029-2.59c2.104,0.674,3.264,2.926,2.59,5.029C267.517,300.161,242.125,318.694,213.166,318.694z"/>
	<polygon style="fill:#E5CF98;" points="195.622,262.342 213.166,246.452 230.71,262.342 	"/>
	<path style="fill:#E5CF98;" d="M337.461,138.844c0,0-103.47,3.302-124.3-25.438c-20.82,28.74-124.29,25.438-124.29,25.438
		c-21.084-3.086-25.46,41.382-25.13,37.282c6.18-75.24,67.92-134.75,144.11-137.4c1.36-0.05,2.7-0.07,4.05-0.08
		c0.85,1.07,1.26,1.71,1.26,1.71s0.41-0.64,1.26-1.71c1.35,0.01,2.71,0.03,4.07,0.08c39.28,1.37,74.72,17.86,100.69,43.82
		c24.39,24.39,40.42,57.15,43.41,93.58C362.921,180.227,362.591,160.124,337.461,138.844z"/>
	<path style="fill:#91643A;" d="M213.166,97.41c20.823,28.733,124.297,41.434,124.297,41.434
		c-6.542,51.248,25.635,83.959,25.635,83.959c43.081-56.7,26.703-198.448-73.611-220.256c-54.787-11.91-76.32,21.807-76.32,21.807
		s-21.533-33.718-76.32-21.807C36.531,24.355,20.154,166.104,63.234,222.803c0,0,32.177-32.711,25.635-83.959
		C88.869,138.844,192.343,126.144,213.166,97.41z"/>
</g>
<g>
</g>
<g>
</g>
<g>
</g>
<g>
</g>
<g>
</g>
<g>
</g>
<g>
</g>
<g>
</g>
<g>
</g>
<g>
</g>
<g>
</g>
<g>
</g>
<g>
</g>
<g>
</g>
<g>
</g>
</svg>
