<?xml version="1.0" encoding="iso-8859-1"?>
<!-- Generator: Adobe Illustrator 18.0.0, SVG Export Plug-In . SVG Version: 6.00 Build 0)  -->
<!DOCTYPE svg PUBLIC "-//W3C//DTD SVG 1.1//EN" "http://www.w3.org/Graphics/SVG/1.1/DTD/svg11.dtd">
<svg version="1.1" id="Capa_1" xmlns="http://www.w3.org/2000/svg" xmlns:xlink="http://www.w3.org/1999/xlink" x="0px" y="0px"
	 viewBox="0 0 424.711 424.711" style="enable-background:new 0 0 424.711 424.711;" xml:space="preserve">
<g>
	<g>
		<path style="fill:#E5CF98;" d="M86.706,195.344c-5.643,0-11.045,1.027-16.037,2.888l-29.984-9.933v53.067
			c0,17.255,9.53,32.328,23.6,40.178c6.621,3.712,14.27,5.843,22.421,5.843c25.406,0,46.021-20.615,46.021-46.021
			S112.112,195.344,86.706,195.344z"/>
		<path style="fill:#E5CF98;" d="M354.033,198.235c-4.629-1.721-9.604-2.73-14.8-2.866c-0.402-0.025-0.802-0.025-1.229-0.025
			c-25.406,0-46.021,20.616-46.021,46.022c0,23.525,17.681,42.936,40.454,45.67c1.831,0.226,3.687,0.351,5.568,0.351
			c25.406,0,46.021-20.615,46.021-46.021v-53.067L354.033,198.235z"/>
	</g>
	<path style="fill:#EA535E;" d="M212.364,424.711L48.499,398.144c0-18.282,3.497-33.249,8.371-45.225
		c3.013-7.414,6.553-13.687,10.115-18.884c9.662-14.096,19.497-20.358,19.497-20.358l92.095,51.121l24.716,43.837L212.364,424.711z"
		/>
	<path style="fill:#EA535E;" d="M376.207,398.144l-163.843,26.566l9.06-16.075l24.705-43.837l92.106-51.121
		c0,0,9.824,6.262,19.486,20.358C367.05,347.637,376.207,368.543,376.207,398.144z"/>
	<path style="fill:#FCE7A7;" d="M246.128,364.8v26.127c0,0.606-0.011,1.212-0.056,1.817c-0.258,5.037-1.615,9.782-3.87,13.989
		c-5.654,10.68-16.895,17.972-29.841,17.972c-12.957,0-24.198-7.292-29.852-17.972c-2.255-4.207-3.612-8.952-3.87-13.989
		c-0.045-0.606-0.056-1.212-0.056-1.817V364.8H246.128z"/>
	<path style="fill:#E5CF98;" d="M246.128,364.8v26.127c0,0.606-0.011,1.212-0.056,1.817c-10.803,2.636-22.1,4.027-33.711,4.027
		c-11.622,0-22.919-1.391-33.722-4.027c-0.045-0.606-0.056-1.212-0.056-1.817V364.8H246.128z"/>
	<path style="fill:#FCE7A7;" d="M354.721,198.938v48.171c0,24.041-5.957,46.702-16.491,66.569
		c-23.895,45.087-71.292,75.802-125.869,75.802c-54.577,0-101.986-30.716-125.88-75.802c-10.523-19.868-16.491-42.528-16.491-66.569
		v-48.171c0-3.983,0.168-7.92,0.482-11.813c5.867-71.45,64.494-127.956,136.841-130.469c1.683-0.056,3.365-0.09,5.048-0.09
		c1.683,0,3.365,0.034,5.048,0.09c37.301,1.301,70.956,16.962,95.614,41.609c23.155,23.154,38.378,54.263,41.216,88.86
		C354.552,191.018,354.721,194.955,354.721,198.938z"/>
	<g>
		<path style="fill:#FFFFFF;" d="M142.258,269.126c-15.812,0-28.677-12.865-28.677-28.677s12.865-28.677,28.677-28.677
			s28.677,12.865,28.677,28.677S158.07,269.126,142.258,269.126z"/>
		<path style="fill:#FFFFFF;" d="M282.456,269.126c-15.812,0-28.677-12.865-28.677-28.677s12.865-28.677,28.677-28.677
			c15.812,0,28.677,12.865,28.677,28.677S298.268,269.126,282.456,269.126z"/>
		<path style="fill:#D14253;" d="M152.072,240.449c-5.42,0-9.814-4.394-9.814-9.814c0-3.387,1.716-6.373,4.326-8.136
			c-1.39-0.334-2.833-0.53-4.326-0.53c-10.207,0-18.481,8.274-18.481,18.481c0,10.207,8.274,18.481,18.481,18.481
			c10.207,0,18.481-8.274,18.481-18.481c0-1.492-0.196-2.936-0.53-4.326C158.445,238.733,155.459,240.449,152.072,240.449z"/>
		<path style="fill:#D14253;" d="M292.27,240.449c-5.42,0-9.814-4.394-9.814-9.814c0-3.387,1.716-6.373,4.325-8.136
			c-1.39-0.334-2.833-0.53-4.325-0.53c-10.207,0-18.481,8.274-18.481,18.481c0,10.207,8.274,18.481,18.481,18.481
			c10.207,0,18.481-8.274,18.481-18.481c0-1.492-0.196-2.936-0.53-4.326C298.643,238.733,295.657,240.449,292.27,240.449z"/>
	</g>
	<polygon style="fill:#E5CF98;" points="192.918,263.391 212.355,245.785 231.793,263.391 	"/>
	<path style="fill:#4D4D4D;" d="M259.018,286.433c-0.828,3.689-1.875,7.244-3.117,10.628c-0.389,1.084-0.803,2.143-1.242,3.19
		c-4.65,11.261-11.48,20.502-19.662,26.565c-1.278,0.95-2.581,1.826-3.932,2.618c-5.759,3.397-12.089,5.259-18.712,5.259
		c-6.623,0-12.954-1.863-18.712-5.259c-1.352-0.792-2.654-1.668-3.932-2.618c-8.181-6.05-14.999-15.291-19.638-26.565
		c-0.438-1.047-0.852-2.106-1.254-3.19c-1.242-3.384-2.289-6.939-3.117-10.628H259.018z"/>
	<path style="fill:#FFFFFF;" d="M259.018,286.433H165.7c0.828,3.689,1.875,7.244,3.117,10.628h17.334l9.566,16.967v-16.967h33.277
		v16.967l9.566-16.967h17.342C257.143,293.677,258.19,290.122,259.018,286.433z"/>
	<path style="fill:#D14253;" d="M231.065,329.434c-5.759,3.397-12.089,5.259-18.712,5.259c-6.623,0-12.954-1.863-18.712-5.259
		c4.395-5.479,11.14-8.985,18.712-8.985C219.926,320.449,226.67,323.955,231.065,329.434z"/>
	<path style="fill:#4D4D4D;" d="M212.355,0l187.851,70.612c0,0-37.506,138.731-64.119,159.08L322.3,163.407
		c-3.877-18.64-23.261-29.621-41.242-23.364l0,0c-44.493,15.482-92.912,15.482-137.405,0l0,0
		c-17.981-6.257-37.365,4.724-41.242,23.364l-13.787,66.285C62.01,209.344,24.504,70.612,24.504,70.612L212.355,0z"/>
</g>
<g>
</g>
<g>
</g>
<g>
</g>
<g>
</g>
<g>
</g>
<g>
</g>
<g>
</g>
<g>
</g>
<g>
</g>
<g>
</g>
<g>
</g>
<g>
</g>
<g>
</g>
<g>
</g>
<g>
</g>
</svg>
